<svg viewBox="0 0 41 53" fill="none" xmlns="http://www.w3.org/2000/svg" class="icon" aria-hidden="true"><path d="M18.172 14.0837C16.105 14.7727 14.3825 15.8554 12.8569 17.2333C9.36268 20.383 7.68941 24.4678 7.09884 28.9955C6.70513 32.1452 7.09884 35.1964 8.3784 38.1001C10.6422 43.1691 14.6286 45.7774 20.1405 45.9251C22.0107 45.9743 23.8808 45.7774 25.7017 45.4329C28.6545 44.8424 31.0168 43.1691 32.8869 40.7576C34.3141 38.9367 37.0701 39.0351 38.3497 40.9053C39.2355 42.1848 39.0879 43.4644 38.3497 44.7439C37.267 46.6141 35.6429 47.9428 33.8712 49.124C30.8692 51.0925 27.4734 52.0768 23.93 52.5197C20.3866 52.9627 16.9416 52.569 13.5951 51.4862C8.08312 49.7145 4.24443 46.0727 2.0298 40.7576C-0.923032 33.72 -0.578536 26.6824 2.57116 19.7925C5.62242 13.0994 10.7899 8.76855 17.9751 6.99685C19.2055 6.70157 20.0421 6.20943 20.7803 5.17594C22.8473 2.17389 25.8986 0.697466 29.442 0.106899C31.3613 -0.188384 33.133 0.156114 34.8555 0.795895C36.2335 1.28803 36.9717 2.96131 36.6764 4.58537C36.3811 5.96336 35.1508 6.94764 33.6744 6.94764C32.444 6.94764 31.2137 6.89842 30.0325 6.89842C29.7865 6.89842 29.5896 6.89842 29.3435 6.94764C29.3435 6.99685 29.2943 7.04606 29.2943 7.14449C29.9341 7.39056 30.5247 7.68585 31.1645 7.93192C34.0189 9.06384 36.4303 10.7863 38.1036 13.3947C39.4324 15.4124 40.2198 17.6763 40.1214 20.0385C39.8753 25.895 35.9382 29.0939 30.5739 28.7494C25.7017 28.4541 22.552 25.5997 20.239 21.6134C19.0578 19.5464 18.5657 17.2334 18.3196 14.9203C18.2704 14.7234 18.2212 14.4774 18.172 14.0837ZM34.8063 1.5341C34.3634 1.09118 33.9696 0.943536 33.4283 1.33725C31.509 2.81367 29.5896 4.29008 27.6703 5.7665C24.9635 7.83349 22.3059 9.90047 19.5992 11.9675C19.0578 12.4104 18.5165 12.3612 17.8275 12.2627C16.9908 12.1151 16.0558 12.0659 15.2191 12.2135C12.7584 12.6565 10.9375 14.2313 9.26425 16.003C2.62037 23.0898 1.29159 33.5232 6.01613 42.0372C7.19727 44.1534 8.67368 46.1219 9.01818 48.6318C9.0674 48.8779 9.41189 49.1732 9.65796 49.3208C10.7899 49.9114 11.971 50.502 13.1522 51.0433C13.3982 51.1418 13.6935 51.0925 13.9396 51.1418C13.8904 50.8957 13.8411 50.6496 13.7919 50.4035C13.7427 50.2067 13.6443 50.059 13.4967 49.9114C12.3647 48.6811 11.1836 47.4015 10.0517 46.1711C8.3784 44.3994 6.90198 42.4801 5.77006 40.3639C3.94915 36.8697 3.45701 33.1295 3.70308 29.2416C3.75229 28.7494 3.75229 28.3065 3.8015 27.8143C3.94915 27.8636 3.99836 27.962 3.99836 28.0112C3.99836 28.2081 3.99836 28.4049 3.99836 28.6018C4.04757 30.3735 3.99836 32.1452 4.19522 33.8677C4.39207 35.787 5.13028 37.5095 6.11456 39.1828C6.36063 39.5765 6.70513 40.0194 7.09884 39.5765C7.44334 39.1336 7.78783 38.4446 7.73862 37.9524C7.54176 36.7221 7.14805 35.5409 6.75434 34.3598C6.65591 34.1137 6.2622 33.8184 5.96692 33.7692C5.47478 33.72 5.17949 33.4739 5.03185 33.031C4.88421 32.6373 4.78578 32.2436 4.73657 31.8499C4.146 26.1903 5.67164 21.2197 9.41189 16.9381C10.347 15.8554 11.3312 14.7727 12.7092 14.2313C13.6443 13.8376 14.038 13.936 14.6778 14.6742C14.8254 14.8219 15.1207 15.0679 15.1699 15.0187C15.5636 14.7234 16.2034 14.4282 16.3018 14.0344C16.4495 13.4439 15.8097 13.3454 15.3176 13.247C15.0223 13.1978 14.6778 13.247 14.3825 13.1978C14.2349 13.1978 14.038 13.1486 13.8904 13.1486C14.9239 12.9025 16.0066 12.3612 16.9908 13.0502C18.3196 14.0344 19.5992 15.1664 20.8295 16.2491C20.9772 16.3967 21.0756 16.5936 21.174 16.7904C22.3552 19.0051 23.5363 21.2197 24.619 23.4835C24.9143 24.0741 25.0127 24.8123 24.9635 25.5013C24.8651 26.2887 25.1604 26.7809 25.8001 27.1746C26.2431 27.4206 26.7352 27.6667 27.2273 27.8636C27.8671 28.1096 28.1624 27.9128 28.2116 27.2238C28.31 26.0919 27.8671 25.2552 27.0797 24.4678C26.4399 23.7788 25.7017 23.139 25.2588 22.3516C23.6347 19.6448 22.0599 16.8396 20.485 14.0837C20.1897 13.5423 20.239 13.0009 20.6327 12.558C20.8787 12.2627 21.1248 11.9675 21.4201 11.7214C23.3887 10.0973 25.3572 8.52248 27.3258 6.89842C29.4912 5.07751 31.7058 3.3058 34.2649 2.07546C34.4618 1.82939 34.6094 1.68175 34.8063 1.5341ZM9.75639 41.6927C9.46111 42.4801 9.46111 43.4152 9.85482 43.9073C10.593 44.7932 11.3312 45.7282 12.2663 46.4172C16.4987 49.3208 21.174 49.7638 26.0462 48.6318C26.686 48.4842 27.3258 48.3366 27.9655 48.1397C28.0148 48.1889 28.0148 48.2873 28.064 48.3366C27.8671 48.435 27.6703 48.5334 27.4734 48.6318C24.8159 49.4685 22.0599 49.7638 19.2547 49.6161C18.7133 49.6161 18.172 49.7145 17.6306 49.7638C18.0735 51.191 19.5992 52.3229 20.928 52.3229C21.617 52.3229 22.2567 52.3229 22.9457 52.2737C24.2253 52.126 25.5049 51.9292 26.8828 51.7815C26.7844 51.5355 26.7352 51.437 26.686 51.3386C26.0954 50.2559 26.1938 50.1083 27.2273 49.5177C28.1624 48.9763 29.1467 48.4842 30.0325 47.8936C31.8535 46.7125 33.6252 45.4821 35.4953 44.301C36.2827 43.8089 37.2178 43.4152 38.0544 43.0215C38.3989 42.8738 38.6942 42.6277 38.4973 42.1848C38.2513 41.7419 37.9068 41.988 37.6607 42.1356C36.8241 42.677 35.9874 43.2183 35.1508 43.7597C35.0031 43.8581 34.8555 43.9073 34.7079 44.0057C35.4953 43.1199 36.3811 42.3325 37.2178 41.545C37.4146 41.3482 37.5623 41.0037 37.7099 40.7576C37.6607 40.7084 37.5623 40.61 37.5131 40.5608C37.267 40.7084 36.9717 40.8068 36.7748 40.9545C36.3319 41.3482 35.9382 41.8403 35.5445 42.2832C34.0189 43.9565 32.4932 45.6298 30.4262 46.7125C27.4734 48.2873 24.3237 48.7303 21.0264 48.5826C18.6641 48.4842 16.4003 47.8444 14.3825 46.5649C13.5951 46.0727 12.9553 45.5314 12.8569 44.5471C12.8077 44.3502 12.66 44.1534 12.5124 44.0057C11.8234 43.3167 11.0852 42.6277 10.347 41.988C10.1501 41.8895 9.95325 41.7911 9.75639 41.6927ZM25.3572 13.3947C25.308 13.7884 25.2096 14.0837 25.2588 14.3789C25.4064 16.4951 26.0954 18.4145 27.4734 20.0878C28.4085 21.2197 29.5404 22.0071 31.0168 22.204C32.0995 22.3516 32.8869 21.761 32.9854 20.6783C33.0838 19.5464 32.9362 18.4637 32.2964 17.5286C30.7215 14.9203 28.31 13.7884 25.3572 13.3947ZM33.3299 24.0741C33.3791 24.1233 33.3791 24.1725 33.4283 24.1725C33.3299 24.2709 33.2314 24.3694 33.133 24.4186C32.4932 24.7139 31.8042 24.9599 31.1645 25.3044C30.82 25.5013 30.4262 25.7474 30.3278 26.0919C29.7865 27.7651 30.7215 28.7986 32.444 28.4541C32.9854 28.3557 33.133 28.1096 32.8869 27.6175C32.3948 26.5348 32.6409 25.5997 33.5267 24.7631C35.0031 23.2867 36.3319 21.7118 36.9717 19.6448C37.0701 19.3495 37.4638 19.0543 37.7591 18.9066C38.0544 18.759 38.3989 18.8574 38.7434 18.8574C39.334 18.8574 39.6293 18.5129 39.4816 17.9223C39.334 17.3318 39.2355 16.7412 38.9895 16.1999C38.891 15.9538 38.5465 15.7077 38.2513 15.7077C37.7591 15.6585 37.2178 15.7569 36.6764 15.8061C36.1351 15.8554 35.889 16.0522 35.9382 16.692C36.0366 17.6271 36.1351 18.6113 36.0858 19.5464C36.0366 20.2846 35.7906 20.9736 35.6429 21.7118C35.5445 21.7118 35.4953 21.6626 35.3969 21.6626C35.4461 21.515 35.4953 21.3181 35.4953 21.1705C35.5937 20.383 35.7414 19.5464 35.6921 18.759C35.5445 16.692 34.2157 15.1172 33.0346 13.4931C32.444 12.6565 30.6723 12.8041 30.131 13.6899C29.9833 13.936 29.9833 14.4282 30.131 14.5758C30.3278 14.7727 30.7215 14.8219 31.066 14.8711C31.1645 14.8711 31.3121 14.7727 31.4597 14.6742C32.0503 14.3789 32.5917 14.4282 33.0346 14.8711C34.511 16.1999 35.3969 17.8239 35.2984 19.8417C35.2 22.3024 33.3299 24.2217 30.9676 24.0741C29.2451 23.9757 27.8671 23.3851 27.6703 21.4657C27.6211 21.072 27.1781 20.6783 26.9321 20.2846C26.0462 21.3673 26.0462 21.5642 26.6368 22.5977C27.5718 24.2709 28.8022 24.8615 31.1152 24.6647C31.9027 24.5662 32.5917 24.2709 33.3299 24.0741ZM28.2116 7.29214C29.9833 5.71729 32.8869 4.24087 35.4953 3.60109C35.889 3.50266 36.3319 3.45345 36.1843 2.86288C35.9874 2.27231 35.5937 2.2231 35.1016 2.46917C34.3634 2.81367 33.6251 3.15816 32.9362 3.55187C28.8514 5.91414 25.308 8.91619 21.9122 12.1151C21.2725 12.7057 21.1248 13.3454 21.4693 14.1329C22.0599 15.5109 22.6012 16.8889 23.241 18.2176C23.4379 18.6606 23.8808 19.0543 24.2745 19.3988C24.7666 19.8417 25.308 19.4972 25.7017 19.1527C25.8986 18.9558 25.9478 18.5129 25.8493 18.2176C25.7017 17.6763 25.308 17.5778 24.7666 17.6763C24.1269 17.7747 23.5363 17.5286 23.2902 16.9381C22.9457 16.1999 22.6997 15.3632 22.4536 14.5758C22.2075 13.7392 22.4536 13.001 22.9457 12.2627C23.6347 11.3277 24.5206 10.7371 25.4556 10.1958C26.5876 9.55597 27.6703 8.76855 28.8514 8.03034C28.5561 7.68585 28.4085 7.48899 28.2116 7.29214ZM6.90198 25.5013C7.19727 25.0092 7.59098 24.6154 7.73862 24.1725C8.67368 21.8102 9.95325 19.694 11.6757 17.8239C12.0202 17.4794 12.3647 17.1349 12.66 16.7904C13.0045 16.3967 12.9553 16.003 12.66 15.6093C12.3155 15.2156 11.971 15.3632 11.6757 15.6093C10.9867 16.1999 10.2977 16.7412 9.70718 17.381C7.93548 19.2511 7.00041 21.5642 6.2622 23.9757C6.06535 24.6647 6.21299 25.0584 6.90198 25.5013ZM33.3299 9.45755C32.6409 9.16226 32.0995 8.81777 31.509 8.62091C31.2137 8.52248 30.6723 8.42405 30.5247 8.5717C30.3278 8.81777 30.4262 9.26069 30.377 9.60519C30.377 9.75283 30.4262 9.90047 30.4755 9.9989C30.6231 10.7371 30.4262 11.0324 29.688 11.0816C29.2451 11.1308 28.8514 11.0816 28.4085 11.1308C27.5718 11.18 26.9321 11.9675 27.1289 12.7057C27.2273 13.001 27.5718 13.2962 27.8671 13.4931C28.0148 13.5915 28.4577 13.5915 28.5561 13.4439C29.1959 12.5088 30.131 12.4104 31.066 12.1151C31.509 11.9675 31.9519 11.7214 32.1979 11.3769C32.6901 10.8848 32.9854 10.1958 33.3299 9.45755ZM34.9539 25.0584C35.0524 25.3536 35.1016 25.6489 35.2492 25.895C35.7906 26.8301 36.2335 27.0761 37.1193 26.2887C38.0052 25.5013 38.5958 24.517 39.0387 23.4343C39.334 22.7945 39.1371 22.3516 38.5958 22.0071C37.9068 21.6134 37.4146 21.5642 36.9225 22.1547C36.3319 22.8437 35.7906 23.6312 35.2492 24.3694C35.1016 24.517 35.0524 24.8123 34.9539 25.0584ZM37.7099 45.0392C35.9874 44.4487 33.7236 45.4329 33.133 46.9586C32.9362 47.4015 32.9362 47.8444 33.3791 48.1889C33.822 48.5334 34.2649 48.435 34.6094 48.0905C35.3476 47.4507 36.0366 46.8601 36.7256 46.1711C37.1193 45.8759 37.4146 45.4329 37.7099 45.0392ZM24.7666 12.8041C24.0776 13.1978 23.6839 13.6899 23.7332 14.3789C23.7824 14.9203 24.1269 15.2156 24.7666 15.3632C24.7666 14.4774 24.7666 13.6899 24.7666 12.8041ZM36.4303 12.558C35.6429 11.8198 34.7079 11.9675 34.1173 13.001C34.9047 13.6407 35.7414 13.4931 36.4303 12.558Z" fill="#ffffff"></path></svg>
